<svg id="svg" version="1.1" xmlns="http://www.w3.org/2000/svg" xmlns:xlink="http://www.w3.org/1999/xlink" width="400" height="400" viewBox="0, 0, 400,400"><g id="svgg"><path id="path0" d="M192.000 136.025 C 179.872 140.994,180.068 140.915,177.400 141.954 C 176.300 142.382,172.070 144.110,168.000 145.793 C 163.930 147.476,157.000 150.297,152.600 152.060 C 148.200 153.824,143.970 155.540,143.200 155.874 C 142.430 156.208,141.440 156.625,141.000 156.800 C 140.560 156.975,139.570 157.389,138.800 157.719 C 138.030 158.050,130.380 161.144,121.800 164.596 C 107.485 170.354,104.425 171.605,99.800 173.590 C 98.920 173.968,95.524 175.335,92.253 176.629 C 86.924 178.736,85.462 179.595,86.106 180.239 C 86.289 180.422,127.517 197.034,152.600 207.031 C 157.880 209.135,162.963 211.204,163.896 211.628 C 164.828 212.053,165.776 212.400,166.001 212.400 C 166.403 212.400,166.901 212.610,168.695 213.538 C 169.187 213.792,169.774 214.000,169.999 214.000 C 170.224 214.000,171.262 214.381,172.304 214.847 C 176.022 216.507,176.724 216.800,176.982 216.800 C 177.126 216.800,177.999 217.137,178.922 217.548 C 179.845 217.959,185.654 220.303,191.832 222.756 L 203.063 227.216 204.632 226.570 C 205.494 226.215,206.740 225.679,207.400 225.379 C 208.060 225.079,210.130 224.218,212.000 223.465 C 220.315 220.118,230.702 215.873,231.800 215.373 C 232.460 215.072,236.510 213.398,240.800 211.652 C 261.605 203.185,271.506 199.132,272.600 198.636 C 273.260 198.336,276.590 196.972,280.000 195.603 C 283.410 194.235,286.920 192.791,287.800 192.394 C 291.878 190.555,297.689 188.408,298.026 188.616 C 298.736 189.055,298.497 207.822,297.774 208.422 C 296.888 209.157,295.999 210.996,296.006 212.080 C 296.011 212.939,296.221 213.421,297.498 215.521 C 297.941 216.249,297.643 216.872,294.798 221.179 C 289.911 228.575,289.761 228.400,300.984 228.400 C 311.537 228.400,311.380 228.551,307.007 222.617 C 305.865 221.068,304.436 219.048,303.831 218.129 L 302.732 216.458 303.766 214.936 C 305.188 212.844,305.151 210.832,303.659 209.114 L 302.519 207.800 302.257 197.351 C 302.053 189.192,302.106 186.816,302.498 186.515 C 302.774 186.303,304.530 185.529,306.400 184.796 C 308.270 184.063,310.880 182.982,312.200 182.393 C 313.520 181.804,315.461 180.998,316.513 180.602 C 320.190 179.217,319.848 178.906,310.600 175.201 C 306.640 173.614,302.645 171.975,301.722 171.558 C 300.799 171.141,299.934 170.800,299.800 170.800 C 299.666 170.800,298.801 170.458,297.878 170.040 C 296.955 169.622,289.900 166.722,282.200 163.595 C 268.490 158.028,255.783 152.853,245.400 148.607 C 242.540 147.438,236.150 144.841,231.200 142.837 C 226.250 140.832,221.300 138.808,220.200 138.337 C 216.374 136.702,215.765 136.453,209.694 134.033 C 202.334 131.100,204.656 130.839,192.000 136.025 M264.597 206.720 C 264.379 206.916,263.120 207.495,261.800 208.007 C 260.480 208.520,258.500 209.336,257.400 209.822 C 256.300 210.308,253.150 211.639,250.400 212.778 C 242.201 216.176,237.152 218.296,234.700 219.369 C 233.985 219.682,232.410 220.326,231.200 220.800 C 229.990 221.274,228.370 221.940,227.600 222.279 C 224.612 223.594,223.727 223.966,221.632 224.790 C 220.440 225.258,218.730 225.976,217.832 226.385 C 216.935 226.794,214.850 227.674,213.200 228.339 C 211.550 229.005,208.677 230.191,206.815 230.975 C 204.953 231.759,203.201 232.400,202.922 232.400 C 202.457 232.400,193.855 229.098,191.000 227.824 C 190.340 227.530,189.350 227.157,188.800 226.996 C 188.250 226.834,187.620 226.574,187.400 226.416 C 187.180 226.259,185.920 225.724,184.600 225.226 C 183.280 224.729,181.750 224.135,181.200 223.907 C 180.650 223.679,179.795 223.337,179.300 223.146 C 177.793 222.566,176.666 222.110,175.200 221.485 C 174.430 221.157,173.350 220.757,172.800 220.596 C 172.250 220.434,171.620 220.164,171.400 219.995 C 171.180 219.825,170.190 219.406,169.200 219.062 C 168.210 218.718,161.100 215.905,153.400 212.809 C 145.700 209.714,139.040 207.230,138.600 207.291 C 137.642 207.422,137.655 206.701,138.171 231.539 L 138.523 248.478 141.037 250.993 C 154.384 264.339,176.359 271.684,203.000 271.702 C 218.081 271.712,227.304 270.420,238.577 266.718 C 247.707 263.719,259.826 256.073,266.000 249.414 L 267.000 248.336 267.000 227.468 L 267.000 206.600 265.997 206.483 C 265.446 206.418,264.816 206.525,264.597 206.720 " stroke="none" fill="#fafafa" fill-rule="evenodd"></path><path id="path1" d="M185.600 15.600 C 185.600 15.837,184.141 16.000,182.024 16.000 C 180.057 16.000,178.336 16.180,178.200 16.400 C 178.064 16.620,176.894 16.800,175.600 16.800 C 174.306 16.800,173.136 16.980,173.000 17.200 C 172.864 17.420,171.773 17.600,170.576 17.600 C 169.379 17.600,168.400 17.780,168.400 18.000 C 168.400 18.220,167.500 18.400,166.400 18.400 C 165.300 18.400,164.400 18.580,164.400 18.800 C 164.400 19.020,163.601 19.200,162.624 19.200 C 161.647 19.200,160.736 19.380,160.600 19.600 C 160.464 19.820,159.733 20.000,158.976 20.000 C 158.219 20.000,157.600 20.180,157.600 20.400 C 157.600 20.620,156.880 20.800,156.000 20.800 C 155.120 20.800,154.400 20.980,154.400 21.200 C 154.400 21.420,153.680 21.600,152.800 21.600 C 151.920 21.600,151.200 21.780,151.200 22.000 C 151.200 22.220,150.660 22.400,150.000 22.400 C 149.340 22.400,148.800 22.580,148.800 22.800 C 148.800 23.020,148.170 23.200,147.400 23.200 C 146.630 23.200,146.000 23.380,146.000 23.600 C 146.000 23.820,145.460 24.000,144.800 24.000 C 144.140 24.000,143.600 24.180,143.600 24.400 C 143.600 24.620,143.102 24.800,142.494 24.800 C 141.886 24.800,140.736 25.150,139.938 25.577 C 139.140 26.005,138.382 26.249,138.254 26.120 C 138.125 25.991,137.790 26.065,137.510 26.285 C 137.229 26.504,136.145 26.929,135.100 27.229 C 134.055 27.529,133.200 27.915,133.200 28.087 C 133.200 28.259,132.761 28.400,132.224 28.400 C 131.687 28.400,131.136 28.580,131.000 28.800 C 130.864 29.020,130.403 29.200,129.976 29.200 C 129.549 29.200,129.200 29.380,129.200 29.600 C 129.200 29.820,128.851 30.000,128.424 30.000 C 127.997 30.000,127.536 30.180,127.400 30.400 C 127.264 30.620,126.803 30.800,126.376 30.800 C 125.949 30.800,125.600 30.980,125.600 31.200 C 125.600 31.420,125.240 31.600,124.800 31.600 C 124.360 31.600,124.000 31.780,124.000 32.000 C 124.000 32.220,123.640 32.400,123.200 32.400 C 122.760 32.400,122.400 32.580,122.400 32.800 C 122.400 33.020,122.040 33.200,121.600 33.200 C 121.160 33.200,120.800 33.380,120.800 33.600 C 120.800 33.820,120.440 34.000,120.000 34.000 C 119.560 34.000,119.200 34.180,119.200 34.400 C 119.200 34.620,118.840 34.800,118.400 34.800 C 117.960 34.800,117.600 34.980,117.600 35.200 C 117.600 35.420,117.240 35.600,116.800 35.600 C 116.360 35.600,116.000 35.780,116.000 36.000 C 116.000 36.220,115.640 36.400,115.200 36.400 C 114.760 36.400,114.400 36.580,114.400 36.800 C 114.400 37.020,114.040 37.200,113.600 37.200 C 113.160 37.200,112.800 37.380,112.800 37.600 C 112.800 37.820,112.564 38.000,112.275 38.000 C 111.987 38.000,111.402 38.325,110.975 38.722 C 110.549 39.120,109.615 39.703,108.900 40.020 C 108.185 40.336,107.600 40.731,107.600 40.898 C 107.600 41.064,107.280 41.200,106.888 41.200 C 106.497 41.200,105.924 41.550,105.615 41.979 C 105.307 42.407,104.922 42.675,104.759 42.575 C 104.597 42.475,104.201 42.656,103.880 42.977 C 103.558 43.299,103.184 43.450,103.048 43.314 C 102.911 43.178,102.800 43.277,102.800 43.533 C 102.800 43.790,102.440 44.000,102.000 44.000 C 101.560 44.000,101.200 44.150,101.200 44.332 C 101.200 44.515,100.705 44.920,100.100 45.232 C 99.495 45.545,98.651 46.115,98.225 46.500 C 97.798 46.885,97.279 47.200,97.071 47.200 C 96.864 47.200,96.403 47.516,96.047 47.903 C 95.691 48.289,94.905 48.860,94.300 49.170 C 93.695 49.481,93.200 49.885,93.200 50.068 C 93.200 50.250,93.002 50.400,92.760 50.400 C 92.519 50.400,91.817 50.940,91.200 51.600 C 90.583 52.260,89.881 52.800,89.640 52.800 C 89.398 52.800,88.459 53.520,87.552 54.400 C 86.645 55.280,85.727 56.000,85.512 56.000 C 85.297 56.000,84.644 56.502,84.060 57.115 C 83.477 57.729,82.370 58.655,81.600 59.173 C 78.540 61.233,58.740 81.200,59.757 81.200 C 59.840 81.200,59.208 81.942,58.353 82.849 C 57.499 83.757,56.800 84.674,56.800 84.889 C 56.800 85.103,56.260 85.783,55.600 86.400 C 54.940 87.017,54.400 87.692,54.400 87.901 C 54.400 88.110,53.860 88.846,53.200 89.537 C 52.540 90.228,52.000 90.973,52.000 91.193 C 52.000 91.413,51.460 92.109,50.800 92.740 C 50.140 93.371,49.600 94.092,49.600 94.343 C 49.600 94.594,49.450 94.800,49.268 94.800 C 49.085 94.800,48.680 95.295,48.368 95.900 C 48.055 96.505,47.485 97.349,47.100 97.775 C 46.715 98.202,46.400 98.787,46.400 99.075 C 46.400 99.364,46.250 99.600,46.068 99.600 C 45.885 99.600,45.480 100.095,45.168 100.700 C 44.856 101.305,44.511 101.890,44.401 102.000 C 43.952 102.447,42.366 105.600,42.590 105.600 C 42.723 105.600,42.464 105.994,42.016 106.475 C 41.567 106.957,41.200 107.587,41.200 107.875 C 41.200 108.164,41.054 108.400,40.875 108.400 C 40.696 108.400,40.302 109.030,40.000 109.800 C 39.698 110.570,39.304 111.200,39.125 111.200 C 38.946 111.200,38.800 111.560,38.800 112.000 C 38.800 112.440,38.664 112.800,38.498 112.800 C 38.331 112.800,37.941 113.385,37.630 114.100 C 37.319 114.815,36.949 115.490,36.809 115.600 C 36.669 115.710,35.972 117.060,35.261 118.600 C 34.550 120.140,33.795 121.713,33.584 122.095 C 33.373 122.477,33.200 123.062,33.200 123.395 C 33.200 123.728,33.020 124.000,32.800 124.000 C 32.580 124.000,32.400 124.360,32.400 124.800 C 32.400 125.240,32.220 125.600,32.000 125.600 C 31.780 125.600,31.600 125.960,31.600 126.400 C 31.600 126.840,31.420 127.200,31.200 127.200 C 30.980 127.200,30.800 127.650,30.800 128.200 C 30.800 128.750,30.620 129.200,30.400 129.200 C 30.180 129.200,30.000 129.549,30.000 129.976 C 30.000 130.403,29.820 130.864,29.600 131.000 C 29.380 131.136,29.200 131.687,29.200 132.224 C 29.200 132.761,29.020 133.200,28.800 133.200 C 28.580 133.200,28.400 133.549,28.400 133.976 C 28.400 134.403,28.220 134.864,28.000 135.000 C 27.780 135.136,27.600 135.687,27.600 136.224 C 27.600 136.761,27.443 137.200,27.250 137.200 C 27.058 137.200,26.900 137.688,26.900 138.283 C 26.900 138.879,26.698 139.434,26.450 139.517 C 26.203 139.599,26.000 140.080,26.000 140.584 C 26.000 141.089,25.730 142.149,25.400 142.938 C 25.070 143.728,24.800 144.830,24.800 145.387 C 24.800 145.944,24.620 146.400,24.400 146.400 C 24.180 146.400,24.000 146.929,24.000 147.576 C 24.000 148.223,23.820 148.864,23.600 149.000 C 23.380 149.136,23.200 149.867,23.200 150.624 C 23.200 151.381,23.020 152.000,22.800 152.000 C 22.580 152.000,22.400 152.720,22.400 153.600 C 22.400 154.480,22.220 155.200,22.000 155.200 C 21.780 155.200,21.600 155.920,21.600 156.800 C 21.600 157.680,21.420 158.400,21.200 158.400 C 20.980 158.400,20.800 159.120,20.800 160.000 C 20.800 160.880,20.620 161.600,20.400 161.600 C 20.180 161.600,20.000 162.500,20.000 163.600 C 20.000 164.700,19.820 165.600,19.600 165.600 C 19.380 165.600,19.200 166.590,19.200 167.800 C 19.200 169.010,19.020 170.000,18.800 170.000 C 18.571 170.000,18.400 171.200,18.400 172.800 C 18.400 174.400,18.229 175.600,18.000 175.600 C 17.767 175.600,17.600 176.925,17.600 178.776 C 17.600 180.523,17.420 182.064,17.200 182.200 C 16.962 182.347,16.800 184.871,16.800 188.424 C 16.800 192.327,16.654 194.400,16.380 194.400 C 16.096 194.400,16.032 196.401,16.180 200.600 C 16.301 204.010,16.499 209.590,16.620 213.000 C 16.744 216.500,17.005 219.200,17.220 219.200 C 17.430 219.200,17.600 220.717,17.600 222.600 C 17.600 224.600,17.765 226.000,18.000 226.000 C 18.222 226.000,18.400 227.059,18.400 228.376 C 18.400 229.683,18.580 230.864,18.800 231.000 C 19.020 231.136,19.200 232.227,19.200 233.424 C 19.200 234.621,19.380 235.600,19.600 235.600 C 19.820 235.600,20.000 236.399,20.000 237.376 C 20.000 238.353,20.180 239.264,20.400 239.400 C 20.620 239.536,20.800 240.447,20.800 241.424 C 20.800 242.401,20.980 243.200,21.200 243.200 C 21.420 243.200,21.600 243.920,21.600 244.800 C 21.600 245.680,21.780 246.400,22.000 246.400 C 22.220 246.400,22.400 247.120,22.400 248.000 C 22.400 248.880,22.580 249.600,22.800 249.600 C 23.020 249.600,23.200 250.140,23.200 250.800 C 23.200 251.460,23.380 252.000,23.600 252.000 C 23.820 252.000,24.000 252.619,24.000 253.376 C 24.000 254.133,24.180 254.864,24.400 255.000 C 24.620 255.136,24.800 255.549,24.800 255.919 C 24.800 256.907,27.705 265.777,28.080 265.933 C 28.256 266.007,28.400 266.592,28.400 267.233 C 28.400 267.875,28.580 268.400,28.800 268.400 C 29.020 268.400,29.200 268.672,29.200 269.005 C 29.200 269.338,29.357 269.923,29.550 270.305 C 31.114 273.411,31.600 274.579,31.600 275.238 C 31.600 275.657,31.780 276.000,32.000 276.000 C 32.220 276.000,32.400 276.360,32.400 276.800 C 32.400 277.240,32.580 277.600,32.800 277.600 C 33.020 277.600,33.200 277.960,33.200 278.400 C 33.200 278.840,33.380 279.200,33.600 279.200 C 33.820 279.200,34.000 279.560,34.000 280.000 C 34.000 280.440,34.180 280.800,34.400 280.800 C 34.620 280.800,34.800 281.160,34.800 281.600 C 34.800 282.040,34.980 282.400,35.200 282.400 C 35.420 282.400,35.600 282.760,35.600 283.200 C 35.600 283.640,35.780 284.000,36.000 284.000 C 36.220 284.000,36.400 284.360,36.400 284.800 C 36.400 285.240,36.580 285.600,36.800 285.600 C 37.020 285.600,37.200 285.960,37.200 286.400 C 37.200 286.840,37.380 287.200,37.600 287.200 C 37.820 287.200,38.000 287.560,38.000 288.000 C 38.000 288.440,38.136 288.800,38.302 288.800 C 38.469 288.800,38.860 289.385,39.172 290.100 C 39.484 290.815,40.068 291.691,40.470 292.047 C 40.871 292.403,41.200 292.988,41.200 293.347 C 41.200 293.706,41.380 294.000,41.600 294.000 C 41.820 294.000,42.000 294.287,42.000 294.638 C 42.000 295.208,43.084 297.485,43.601 298.000 C 43.711 298.110,44.056 298.695,44.368 299.300 C 44.680 299.905,45.085 300.400,45.268 300.400 C 45.450 300.400,45.600 300.636,45.600 300.925 C 45.600 301.213,45.915 301.798,46.300 302.225 C 46.685 302.651,47.255 303.495,47.568 304.100 C 47.880 304.705,48.285 305.200,48.468 305.200 C 48.650 305.200,48.800 305.442,48.800 305.738 C 48.800 306.034,49.160 306.602,49.600 307.000 C 50.040 307.398,50.400 307.894,50.400 308.102 C 50.400 308.309,50.940 308.983,51.600 309.600 C 52.260 310.217,52.800 310.937,52.800 311.200 C 52.800 311.463,53.340 312.183,54.000 312.800 C 54.660 313.417,55.200 314.119,55.200 314.360 C 55.200 314.602,55.920 315.541,56.800 316.448 C 57.680 317.355,58.400 318.262,58.400 318.465 C 58.400 318.668,58.776 319.231,59.235 319.717 C 59.694 320.203,60.639 321.298,61.335 322.150 C 63.358 324.629,77.205 338.476,79.400 340.215 C 80.500 341.087,81.877 342.295,82.460 342.900 C 83.044 343.505,83.697 344.000,83.912 344.000 C 84.127 344.000,85.045 344.720,85.952 345.600 C 86.859 346.480,87.754 347.200,87.941 347.200 C 88.128 347.200,88.846 347.740,89.537 348.400 C 90.228 349.060,90.929 349.601,91.096 349.602 C 91.263 349.603,91.975 350.143,92.678 350.802 C 93.381 351.461,94.146 352.000,94.378 352.000 C 94.610 352.000,94.800 352.150,94.800 352.332 C 94.800 352.515,95.295 352.919,95.900 353.230 C 96.505 353.540,97.270 354.066,97.601 354.397 C 98.333 355.132,100.346 356.369,101.300 356.671 C 101.685 356.793,102.000 357.025,102.000 357.186 C 102.000 357.347,102.720 357.803,103.600 358.200 C 104.480 358.597,105.200 359.074,105.200 359.261 C 105.200 359.447,105.560 359.600,106.000 359.600 C 106.440 359.600,106.800 359.780,106.800 360.000 C 106.800 360.220,107.094 360.400,107.453 360.400 C 107.812 360.400,108.397 360.729,108.753 361.130 C 109.109 361.532,109.985 362.116,110.700 362.428 C 111.415 362.740,112.000 363.131,112.000 363.298 C 112.000 363.464,112.360 363.600,112.800 363.600 C 113.240 363.600,113.600 363.780,113.600 364.000 C 113.600 364.220,113.960 364.400,114.400 364.400 C 114.840 364.400,115.200 364.580,115.200 364.800 C 115.200 365.020,115.545 365.200,115.967 365.200 C 116.388 365.200,116.793 365.335,116.867 365.500 C 117.055 365.924,121.999 368.400,122.656 368.400 C 122.955 368.400,123.200 368.580,123.200 368.800 C 123.200 369.020,123.560 369.200,124.000 369.200 C 124.440 369.200,124.800 369.380,124.800 369.600 C 124.800 369.820,125.160 370.000,125.600 370.000 C 126.040 370.000,126.400 370.180,126.400 370.400 C 126.400 370.620,126.749 370.800,127.176 370.800 C 127.603 370.800,128.064 370.980,128.200 371.200 C 128.336 371.420,128.797 371.600,129.224 371.600 C 129.651 371.600,130.000 371.780,130.000 372.000 C 130.000 372.220,130.349 372.400,130.776 372.400 C 131.203 372.400,131.664 372.580,131.800 372.800 C 131.936 373.020,132.363 373.200,132.748 373.200 C 133.134 373.200,134.184 373.555,135.081 373.988 C 135.979 374.422,137.457 374.896,138.365 375.041 C 139.274 375.186,140.114 375.461,140.232 375.653 C 140.351 375.844,140.797 376.000,141.224 376.000 C 141.651 376.000,142.000 376.180,142.000 376.400 C 142.000 376.620,142.540 376.800,143.200 376.800 C 143.860 376.800,144.400 376.980,144.400 377.200 C 144.400 377.420,145.030 377.600,145.800 377.600 C 146.570 377.600,147.200 377.780,147.200 378.000 C 147.200 378.220,147.740 378.400,148.400 378.400 C 149.060 378.400,149.600 378.580,149.600 378.800 C 149.600 379.020,150.230 379.200,151.000 379.200 C 151.770 379.200,152.400 379.380,152.400 379.600 C 152.400 379.820,153.030 380.000,153.800 380.000 C 154.570 380.000,155.200 380.180,155.200 380.400 C 155.200 380.620,155.920 380.800,156.800 380.800 C 157.680 380.800,158.400 380.980,158.400 381.200 C 158.400 381.420,159.210 381.600,160.200 381.600 C 161.190 381.600,162.000 381.780,162.000 382.000 C 162.000 382.220,162.709 382.400,163.576 382.400 C 164.443 382.400,165.264 382.580,165.400 382.800 C 165.536 383.020,166.627 383.200,167.824 383.200 C 169.021 383.200,170.000 383.380,170.000 383.600 C 170.000 383.822,171.067 384.000,172.400 384.000 C 173.733 384.000,174.800 384.178,174.800 384.400 C 174.800 384.628,175.992 384.800,177.576 384.800 C 179.103 384.800,180.464 384.980,180.600 385.200 C 180.737 385.422,182.577 385.600,184.744 385.600 C 186.887 385.600,188.825 385.785,189.051 386.011 C 189.844 386.804,223.733 386.006,224.580 385.173 C 224.789 384.968,226.274 384.800,227.880 384.800 C 229.560 384.800,230.800 384.630,230.800 384.400 C 230.800 384.178,231.867 384.000,233.200 384.000 C 234.533 384.000,235.600 383.822,235.600 383.600 C 235.600 383.380,236.489 383.200,237.576 383.200 C 238.663 383.200,239.664 383.020,239.800 382.800 C 239.936 382.580,240.757 382.400,241.624 382.400 C 242.491 382.400,243.200 382.220,243.200 382.000 C 243.200 381.780,243.999 381.600,244.976 381.600 C 245.953 381.600,246.864 381.420,247.000 381.200 C 247.136 380.980,247.856 380.800,248.600 380.800 C 249.344 380.800,250.064 380.620,250.200 380.400 C 250.336 380.180,250.966 380.000,251.600 380.000 C 252.234 380.000,252.864 379.820,253.000 379.600 C 253.136 379.380,253.766 379.200,254.400 379.200 C 255.034 379.200,255.664 379.020,255.800 378.800 C 255.936 378.580,256.476 378.400,257.000 378.400 C 257.524 378.400,258.064 378.220,258.200 378.000 C 258.336 377.780,258.876 377.600,259.400 377.600 C 259.924 377.600,260.464 377.420,260.600 377.200 C 260.736 376.980,261.276 376.800,261.800 376.800 C 262.324 376.800,262.864 376.620,263.000 376.400 C 263.136 376.180,263.687 376.000,264.224 376.000 C 264.761 376.000,265.200 375.844,265.200 375.654 C 265.200 375.464,266.002 375.199,266.983 375.064 C 268.549 374.850,271.140 373.907,273.295 372.767 C 273.677 372.565,274.262 372.400,274.595 372.400 C 274.928 372.400,275.200 372.253,275.200 372.072 C 275.200 371.892,276.100 371.500,277.200 371.200 C 278.300 370.900,279.200 370.508,279.200 370.328 C 279.200 370.147,279.560 370.000,280.000 370.000 C 280.440 370.000,280.800 369.820,280.800 369.600 C 280.800 369.380,281.160 369.200,281.600 369.200 C 282.040 369.200,282.400 369.020,282.400 368.800 C 282.400 368.580,282.760 368.400,283.200 368.400 C 283.640 368.400,284.000 368.220,284.000 368.000 C 284.000 367.780,284.360 367.600,284.800 367.600 C 285.240 367.600,285.600 367.420,285.600 367.200 C 285.600 366.980,285.960 366.800,286.400 366.800 C 286.840 366.800,287.200 366.620,287.200 366.400 C 287.200 366.180,287.560 366.000,288.000 366.000 C 288.440 366.000,288.800 365.854,288.800 365.675 C 288.800 365.496,289.430 365.102,290.200 364.800 C 290.970 364.498,291.600 364.104,291.600 363.925 C 291.600 363.746,291.960 363.600,292.400 363.600 C 292.840 363.600,293.200 363.420,293.200 363.200 C 293.200 362.980,293.478 362.800,293.817 362.800 C 294.156 362.800,294.820 362.440,295.292 362.000 C 295.764 361.560,296.387 361.200,296.675 361.200 C 296.964 361.200,297.200 361.020,297.200 360.800 C 297.200 360.580,297.560 360.400,298.000 360.400 C 298.440 360.400,298.800 360.220,298.800 360.000 C 298.800 359.780,299.055 359.600,299.367 359.600 C 299.678 359.600,299.993 359.465,300.067 359.300 C 300.140 359.135,300.830 358.683,301.600 358.296 C 303.870 357.155,305.790 355.942,305.933 355.558 C 306.007 355.361,306.322 355.200,306.633 355.200 C 306.945 355.200,307.200 355.050,307.200 354.868 C 307.200 354.685,307.695 354.281,308.300 353.970 C 308.905 353.660,309.691 353.089,310.047 352.703 C 310.403 352.316,310.871 352.000,311.088 352.000 C 311.304 352.000,312.046 351.460,312.737 350.800 C 313.428 350.140,314.192 349.600,314.436 349.600 C 314.680 349.600,315.383 349.060,316.000 348.400 C 316.617 347.740,317.297 347.200,317.512 347.200 C 317.727 347.200,318.645 346.480,319.552 345.600 C 320.459 344.720,321.292 344.000,321.404 344.000 C 321.635 344.000,323.484 342.421,325.503 340.500 C 326.254 339.785,327.021 339.200,327.208 339.200 C 327.663 339.200,339.480 327.396,341.000 325.424 C 341.660 324.567,343.145 322.910,344.300 321.742 C 345.455 320.573,346.400 319.455,346.400 319.257 C 346.400 319.059,347.120 318.155,348.000 317.248 C 348.880 316.341,349.600 315.457,349.600 315.284 C 349.600 315.110,350.320 314.172,351.200 313.200 C 352.080 312.228,352.800 311.240,352.800 311.004 C 352.800 310.769,353.160 310.317,353.600 310.000 C 354.040 309.683,354.400 309.291,354.400 309.130 C 354.400 308.969,355.293 307.642,356.385 306.181 C 357.476 304.721,358.478 303.183,358.612 302.763 C 358.745 302.343,359.022 302.000,359.227 302.000 C 359.432 302.000,359.600 301.722,359.600 301.383 C 359.600 301.044,359.960 300.380,360.400 299.908 C 360.840 299.436,361.200 298.813,361.200 298.525 C 361.200 298.236,361.380 298.000,361.600 298.000 C 361.820 298.000,362.000 297.680,362.000 297.288 C 362.000 296.897,362.360 296.317,362.800 296.000 C 363.240 295.683,363.600 295.103,363.600 294.712 C 363.600 294.320,363.780 294.000,364.000 294.000 C 364.220 294.000,364.400 293.640,364.400 293.200 C 364.400 292.760,364.580 292.400,364.800 292.400 C 365.020 292.400,365.200 292.130,365.200 291.800 C 365.200 291.470,365.380 291.200,365.600 291.200 C 365.820 291.200,366.000 290.930,366.000 290.600 C 366.000 290.270,366.135 289.999,366.300 289.999 C 366.465 289.998,367.050 289.008,367.600 287.800 C 368.150 286.592,368.735 285.602,368.900 285.601 C 369.065 285.601,369.200 285.240,369.200 284.800 C 369.200 284.360,369.380 284.000,369.600 284.000 C 369.820 284.000,370.000 283.640,370.000 283.200 C 370.000 282.760,370.180 282.400,370.400 282.400 C 370.620 282.400,370.800 282.040,370.800 281.600 C 370.800 281.160,370.980 280.800,371.200 280.800 C 371.420 280.800,371.600 280.564,371.600 280.275 C 371.600 279.986,371.960 279.005,372.400 278.094 C 372.840 277.184,373.200 276.160,373.200 275.819 C 373.200 275.479,373.380 275.200,373.600 275.200 C 373.820 275.200,374.000 274.951,374.000 274.646 C 374.000 274.341,374.269 273.576,374.598 272.946 C 374.926 272.316,375.196 271.395,375.198 270.900 C 375.199 270.405,375.380 270.000,375.600 270.000 C 375.820 270.000,376.000 269.640,376.000 269.200 C 376.000 268.760,376.180 268.400,376.400 268.400 C 376.620 268.400,376.800 267.860,376.800 267.200 C 376.800 266.540,376.980 266.000,377.200 266.000 C 377.420 266.000,377.600 265.460,377.600 264.800 C 377.600 264.140,377.780 263.600,378.000 263.600 C 378.220 263.600,378.400 263.251,378.400 262.824 C 378.400 262.397,378.580 261.936,378.800 261.800 C 379.020 261.664,379.200 261.124,379.200 260.600 C 379.200 260.076,379.380 259.536,379.600 259.400 C 379.820 259.264,380.000 258.724,380.000 258.200 C 380.000 257.676,380.180 257.136,380.400 257.000 C 380.620 256.864,380.800 256.223,380.800 255.576 C 380.800 254.929,380.980 254.400,381.200 254.400 C 381.420 254.400,381.600 253.860,381.600 253.200 C 381.600 252.540,381.780 252.000,382.000 252.000 C 382.220 252.000,382.400 251.280,382.400 250.400 C 382.400 249.520,382.580 248.800,382.800 248.800 C 383.020 248.800,383.200 248.080,383.200 247.200 C 383.200 246.320,383.380 245.600,383.600 245.600 C 383.820 245.600,384.000 244.880,384.000 244.000 C 384.000 243.120,384.180 242.400,384.400 242.400 C 384.620 242.400,384.800 241.691,384.800 240.824 C 384.800 239.957,384.980 239.136,385.200 239.000 C 385.420 238.864,385.600 237.964,385.600 237.000 C 385.600 236.036,385.780 235.136,386.000 235.000 C 386.220 234.864,386.400 233.874,386.400 232.800 C 386.400 231.726,386.580 230.736,386.800 230.600 C 387.020 230.464,387.200 229.204,387.200 227.800 C 387.200 226.396,387.380 225.136,387.600 225.000 C 387.820 224.864,388.000 223.244,388.000 221.400 C 388.000 219.556,388.180 217.936,388.400 217.800 C 388.656 217.641,388.800 211.470,388.800 200.600 C 388.800 189.730,388.656 183.559,388.400 183.400 C 388.180 183.264,388.000 181.633,388.000 179.776 C 388.000 177.792,387.835 176.400,387.600 176.400 C 387.371 176.400,387.200 175.200,387.200 173.600 C 387.200 172.000,387.029 170.800,386.800 170.800 C 386.580 170.800,386.400 169.821,386.400 168.624 C 386.400 167.427,386.220 166.336,386.000 166.200 C 385.780 166.064,385.600 165.164,385.600 164.200 C 385.600 163.236,385.420 162.336,385.200 162.200 C 384.980 162.064,384.800 161.254,384.800 160.400 C 384.800 159.546,384.620 158.736,384.400 158.600 C 384.180 158.464,384.000 157.744,384.000 157.000 C 384.000 156.256,383.820 155.536,383.600 155.400 C 383.380 155.264,383.200 154.544,383.200 153.800 C 383.200 153.056,383.020 152.336,382.800 152.200 C 382.580 152.064,382.400 151.423,382.400 150.776 C 382.400 150.129,382.220 149.600,382.000 149.600 C 381.780 149.600,381.600 148.970,381.600 148.200 C 381.600 147.430,381.420 146.800,381.200 146.800 C 380.980 146.800,380.800 146.271,380.800 145.624 C 380.800 144.977,380.620 144.336,380.400 144.200 C 380.180 144.064,380.000 143.513,380.000 142.976 C 380.000 142.439,379.820 142.000,379.600 142.000 C 379.380 142.000,379.200 141.460,379.200 140.800 C 379.200 140.140,379.020 139.600,378.800 139.600 C 378.580 139.600,378.400 139.060,378.400 138.400 C 378.400 137.740,378.220 137.200,378.000 137.200 C 377.780 137.200,377.600 136.851,377.600 136.424 C 377.600 135.997,377.420 135.536,377.200 135.400 C 376.980 135.264,376.800 134.713,376.800 134.176 C 376.800 133.639,376.620 133.200,376.400 133.200 C 376.180 133.200,376.000 132.761,376.000 132.224 C 376.000 131.687,375.820 131.136,375.600 131.000 C 375.380 130.864,375.200 130.484,375.200 130.154 C 375.200 129.603,374.352 127.515,372.962 124.639 C 372.653 124.000,372.400 123.235,372.400 122.939 C 372.400 122.642,372.220 122.400,372.000 122.400 C 371.780 122.400,371.600 122.040,371.600 121.600 C 371.600 121.160,371.420 120.800,371.200 120.800 C 370.980 120.800,370.800 120.440,370.800 120.000 C 370.800 119.560,370.620 119.200,370.400 119.200 C 370.180 119.200,370.000 118.840,370.000 118.400 C 370.000 117.960,369.820 117.600,369.600 117.600 C 369.380 117.600,369.200 117.240,369.200 116.800 C 369.200 116.360,369.020 116.000,368.800 116.000 C 368.580 116.000,368.400 115.640,368.400 115.200 C 368.400 114.760,368.220 114.400,368.000 114.400 C 367.780 114.400,367.600 114.040,367.600 113.600 C 367.600 113.160,367.420 112.800,367.200 112.800 C 366.980 112.800,366.800 112.440,366.800 112.000 C 366.800 111.560,366.620 111.200,366.400 111.200 C 366.180 111.200,366.000 110.930,366.000 110.600 C 366.000 110.270,365.820 110.000,365.600 110.000 C 365.380 110.000,365.200 109.764,365.200 109.475 C 365.200 109.187,364.840 108.564,364.400 108.092 C 363.960 107.620,363.600 106.956,363.600 106.617 C 363.600 106.278,363.420 106.000,363.200 106.000 C 362.980 106.000,362.800 105.680,362.800 105.288 C 362.800 104.897,362.440 104.317,362.000 104.000 C 361.560 103.683,361.200 103.186,361.200 102.895 C 361.200 102.604,360.840 101.980,360.400 101.508 C 359.960 101.036,359.600 100.413,359.600 100.125 C 359.600 99.836,359.420 99.600,359.200 99.600 C 358.980 99.600,358.800 99.394,358.800 99.141 C 358.800 98.889,358.125 97.698,357.300 96.495 C 356.475 95.292,355.620 94.016,355.400 93.659 C 355.180 93.303,354.685 92.718,354.300 92.359 C 353.915 92.000,353.600 91.529,353.600 91.312 C 353.600 91.096,353.060 90.354,352.400 89.663 C 351.740 88.972,351.200 88.247,351.200 88.052 C 351.200 87.856,350.480 86.955,349.600 86.048 C 348.720 85.141,348.000 84.238,348.000 84.040 C 348.000 83.843,347.100 82.762,346.000 81.639 C 344.900 80.515,344.000 79.509,344.000 79.403 C 344.000 78.783,325.842 60.400,325.230 60.400 C 325.043 60.400,324.068 59.590,323.064 58.600 C 322.059 57.610,321.049 56.800,320.819 56.800 C 320.589 56.800,320.400 56.620,320.400 56.400 C 320.400 56.180,320.202 56.000,319.960 56.000 C 319.719 56.000,319.017 55.460,318.400 54.800 C 317.783 54.140,317.108 53.600,316.899 53.600 C 316.690 53.600,315.954 53.060,315.263 52.400 C 314.572 51.740,313.852 51.200,313.663 51.200 C 313.474 51.200,312.754 50.660,312.063 50.000 C 311.372 49.340,310.575 48.800,310.292 48.800 C 310.009 48.800,309.517 48.440,309.200 48.000 C 308.883 47.560,308.421 47.200,308.174 47.200 C 307.926 47.200,307.398 46.840,307.000 46.400 C 306.602 45.960,306.049 45.600,305.771 45.600 C 305.494 45.600,305.207 45.439,305.133 45.242 C 304.976 44.819,303.013 43.616,300.100 42.158 C 298.945 41.579,298.000 40.947,298.000 40.753 C 298.000 40.559,297.640 40.400,297.200 40.400 C 296.760 40.400,296.400 40.220,296.400 40.000 C 296.400 39.780,296.122 39.600,295.783 39.600 C 295.444 39.600,294.780 39.240,294.308 38.800 C 293.836 38.360,293.213 38.000,292.925 38.000 C 292.636 38.000,292.400 37.820,292.400 37.600 C 292.400 37.380,292.040 37.200,291.600 37.200 C 291.160 37.200,290.800 37.054,290.800 36.875 C 290.800 36.696,290.170 36.302,289.400 36.000 C 288.630 35.698,288.000 35.304,288.000 35.125 C 288.000 34.946,287.640 34.800,287.200 34.800 C 286.760 34.800,286.400 34.620,286.400 34.400 C 286.400 34.180,286.040 34.000,285.600 34.000 C 285.160 34.000,284.800 33.820,284.800 33.600 C 284.800 33.380,284.440 33.200,284.000 33.200 C 283.560 33.200,283.200 33.020,283.200 32.800 C 283.200 32.580,282.840 32.400,282.400 32.400 C 281.960 32.400,281.600 32.220,281.600 32.000 C 281.600 31.780,281.251 31.600,280.824 31.600 C 280.397 31.600,279.936 31.420,279.800 31.200 C 279.664 30.980,279.113 30.800,278.576 30.800 C 278.039 30.800,277.600 30.620,277.600 30.400 C 277.600 30.180,277.240 30.000,276.800 30.000 C 276.360 30.000,276.000 29.820,276.000 29.600 C 276.000 29.380,275.728 29.200,275.395 29.200 C 275.062 29.200,274.477 29.041,274.095 28.847 C 272.774 28.175,270.891 27.458,269.800 27.211 C 269.580 27.162,269.073 26.946,268.674 26.733 C 268.275 26.519,267.645 26.274,267.274 26.188 C 266.903 26.102,265.880 25.762,265.000 25.433 C 264.120 25.104,263.006 24.827,262.524 24.818 C 262.042 24.808,261.536 24.620,261.400 24.400 C 261.264 24.180,260.623 24.000,259.976 24.000 C 259.329 24.000,258.800 23.820,258.800 23.600 C 258.800 23.380,258.350 23.200,257.800 23.200 C 257.250 23.200,256.800 23.020,256.800 22.800 C 256.800 22.580,256.271 22.400,255.624 22.400 C 254.977 22.400,254.336 22.220,254.200 22.000 C 254.064 21.780,253.333 21.600,252.576 21.600 C 251.819 21.600,251.200 21.420,251.200 21.200 C 251.200 20.980,250.480 20.800,249.600 20.800 C 248.720 20.800,248.000 20.620,248.000 20.400 C 248.000 20.180,247.280 20.000,246.400 20.000 C 245.520 20.000,244.800 19.820,244.800 19.600 C 244.800 19.380,244.001 19.200,243.024 19.200 C 242.047 19.200,241.136 19.020,241.000 18.800 C 240.864 18.580,239.953 18.400,238.976 18.400 C 237.999 18.400,237.200 18.220,237.200 18.000 C 237.200 17.778,236.133 17.600,234.800 17.600 C 233.467 17.600,232.400 17.422,232.400 17.200 C 232.400 16.975,231.275 16.800,229.824 16.800 C 228.407 16.800,227.136 16.620,227.000 16.400 C 226.864 16.180,225.244 16.000,223.400 16.000 C 221.556 16.000,219.936 15.820,219.800 15.600 C 219.641 15.343,213.463 15.200,202.576 15.200 C 191.525 15.200,185.600 15.340,185.600 15.600 M211.200 133.893 C 214.390 135.225,219.520 137.341,222.600 138.597 C 225.680 139.852,228.830 141.150,229.600 141.480 C 231.407 142.256,232.776 142.821,233.900 143.254 C 235.454 143.852,236.554 144.299,238.000 144.919 C 238.770 145.250,244.620 147.625,251.000 150.198 C 257.380 152.771,263.230 155.147,264.000 155.479 C 264.770 155.810,265.760 156.225,266.200 156.401 C 266.640 156.577,267.853 157.098,268.896 157.560 C 269.938 158.022,271.027 158.400,271.316 158.400 C 271.604 158.400,272.011 158.552,272.220 158.739 C 272.429 158.925,274.130 159.673,276.000 160.400 C 277.870 161.127,279.571 161.875,279.780 162.061 C 279.989 162.248,280.396 162.400,280.684 162.400 C 280.973 162.400,281.972 162.740,282.904 163.156 C 283.837 163.571,285.320 164.192,286.200 164.534 C 287.080 164.876,290.230 166.169,293.200 167.407 C 296.170 168.645,300.850 170.560,303.600 171.662 C 306.350 172.764,309.230 173.940,310.000 174.274 C 310.770 174.608,311.805 175.043,312.300 175.241 C 312.795 175.438,313.695 175.804,314.300 176.054 C 314.905 176.303,315.850 176.684,316.400 176.900 C 321.679 178.974,320.129 180.207,304.900 186.052 L 302.800 186.857 302.800 197.167 C 302.800 207.135,302.828 207.501,303.641 208.237 C 305.790 210.182,306.054 212.074,304.550 214.750 L 303.500 216.618 305.432 219.409 C 306.495 220.944,307.475 222.290,307.609 222.400 C 308.423 223.068,310.400 226.488,310.400 227.228 C 310.400 229.007,309.562 229.174,300.562 229.187 C 289.343 229.204,288.974 228.862,293.299 222.453 C 294.432 220.774,295.755 218.703,296.239 217.852 L 297.119 216.304 296.104 214.283 C 294.978 212.042,295.206 210.375,296.890 208.529 C 297.593 207.759,298.108 189.974,297.446 189.313 C 297.311 189.178,289.703 192.206,288.705 192.792 C 288.323 193.016,287.834 193.200,287.617 193.200 C 287.401 193.200,286.273 193.634,285.112 194.165 C 283.950 194.695,281.110 195.880,278.800 196.797 C 276.490 197.715,274.060 198.711,273.400 199.012 C 272.740 199.312,270.220 200.356,267.800 201.331 C 263.563 203.037,262.404 203.515,259.800 204.623 C 259.140 204.904,256.710 205.884,254.400 206.800 C 252.090 207.716,249.570 208.739,248.800 209.074 C 248.030 209.408,247.040 209.825,246.600 210.000 C 246.160 210.175,245.170 210.592,244.400 210.926 C 243.630 211.260,240.750 212.440,238.000 213.548 C 235.250 214.655,230.570 216.569,227.600 217.799 C 224.630 219.030,220.580 220.678,218.600 221.462 C 216.620 222.246,214.237 223.227,213.304 223.643 C 212.372 224.060,211.515 224.400,211.400 224.400 C 211.285 224.400,210.338 224.778,209.296 225.240 C 208.253 225.702,206.950 226.263,206.400 226.487 C 205.850 226.710,205.087 227.052,204.705 227.247 C 203.590 227.814,202.126 227.660,200.096 226.760 C 197.822 225.753,197.147 225.478,194.800 224.604 C 193.810 224.236,192.460 223.701,191.800 223.417 C 191.140 223.132,185.740 220.969,179.800 218.610 C 173.860 216.250,168.460 214.083,167.800 213.793 C 167.140 213.503,165.790 212.961,164.800 212.589 C 163.810 212.216,162.237 211.571,161.304 211.156 C 160.372 210.740,159.373 210.400,159.084 210.400 C 158.796 210.400,158.389 210.243,158.180 210.052 C 157.971 209.860,151.320 207.144,143.400 204.017 C 135.480 200.890,128.477 198.076,127.839 197.765 C 127.200 197.454,126.523 197.200,126.334 197.200 C 126.146 197.200,125.138 196.822,124.096 196.360 C 123.053 195.898,121.795 195.358,121.300 195.160 C 120.805 194.962,119.905 194.596,119.300 194.346 C 118.695 194.097,117.795 193.737,117.300 193.546 C 116.805 193.356,115.950 193.020,115.400 192.800 C 114.850 192.580,113.950 192.220,113.400 192.000 C 110.953 191.021,110.155 190.684,109.505 190.353 C 109.123 190.159,108.626 190.000,108.401 190.000 C 108.176 190.000,107.138 189.622,106.096 189.160 C 103.382 187.958,103.456 187.988,93.900 184.174 C 87.805 181.742,85.200 180.517,85.200 180.083 C 85.200 179.292,86.358 178.000,87.067 178.000 C 87.366 178.000,87.923 177.841,88.305 177.647 C 88.687 177.452,89.450 177.111,90.000 176.887 C 90.550 176.664,91.630 176.208,92.400 175.873 C 93.170 175.538,95.240 174.695,97.000 174.000 C 98.760 173.305,100.830 172.462,101.600 172.127 C 103.272 171.400,103.137 171.455,110.200 168.614 C 116.577 166.049,121.034 164.214,123.496 163.140 C 124.428 162.733,125.376 162.400,125.601 162.400 C 125.826 162.400,126.323 162.216,126.705 161.991 C 127.373 161.599,130.218 160.437,155.000 150.434 C 161.160 147.948,166.740 145.678,167.400 145.391 C 168.060 145.103,169.860 144.375,171.400 143.774 C 172.940 143.173,174.371 142.528,174.580 142.340 C 174.789 142.153,175.196 142.000,175.484 142.000 C 175.773 142.000,176.862 141.622,177.904 141.160 C 178.947 140.698,180.160 140.172,180.600 139.991 C 181.040 139.810,182.120 139.365,183.000 139.001 C 205.342 129.771,202.541 130.278,211.200 133.893 M267.251 206.262 C 267.783 206.902,267.890 247.001,267.365 248.844 C 267.264 249.198,265.816 250.638,264.147 252.044 C 262.478 253.450,260.902 254.780,260.646 255.000 C 251.430 262.914,238.600 268.611,225.200 270.739 C 223.770 270.967,221.160 271.388,219.400 271.676 C 215.030 272.392,191.499 272.393,186.800 271.679 C 179.932 270.634,178.121 270.297,174.343 269.362 C 165.536 267.183,157.628 263.647,149.653 258.323 C 144.345 254.779,139.600 251.138,139.600 250.609 C 139.600 250.328,139.230 249.851,138.778 249.549 C 137.534 248.718,136.581 207.842,137.786 206.961 C 138.624 206.348,139.809 206.535,142.175 207.655 C 143.041 208.065,143.898 208.400,144.079 208.400 C 144.261 208.400,145.172 208.740,146.104 209.156 C 147.037 209.571,148.610 210.216,149.600 210.589 C 150.590 210.961,151.940 211.503,152.600 211.794 C 153.260 212.084,158.030 213.986,163.200 216.021 C 172.262 219.587,173.333 220.018,176.400 221.334 C 177.170 221.664,178.610 222.236,179.600 222.604 C 180.590 222.973,181.805 223.438,182.300 223.637 C 182.795 223.837,183.650 224.180,184.200 224.400 C 184.750 224.620,185.605 224.962,186.100 225.160 C 186.595 225.358,187.853 225.898,188.896 226.360 C 189.938 226.822,191.027 227.200,191.316 227.200 C 191.604 227.200,192.011 227.352,192.220 227.538 C 192.429 227.723,193.680 228.284,195.000 228.784 C 196.320 229.283,198.199 230.048,199.175 230.483 C 202.635 232.026,204.013 231.775,211.912 228.165 C 213.073 227.634,214.110 227.200,214.216 227.200 C 214.322 227.200,215.262 226.822,216.304 226.360 C 217.347 225.898,218.605 225.358,219.100 225.160 C 219.595 224.962,220.405 224.625,220.900 224.412 C 223.323 223.366,231.096 220.110,239.010 216.827 C 243.845 214.821,248.160 213.022,248.600 212.830 C 249.040 212.637,250.253 212.102,251.296 211.640 C 252.338 211.178,253.285 210.800,253.400 210.800 C 253.515 210.800,254.462 210.422,255.504 209.960 C 256.547 209.498,257.850 208.934,258.400 208.707 C 258.950 208.479,259.760 208.137,260.200 207.947 C 265.947 205.459,266.479 205.331,267.251 206.262 " stroke="none" fill="#343434" fill-rule="evenodd"></path><path id="path2" d="M193.200 134.791 C 188.470 136.743,183.880 138.638,183.000 139.001 C 182.120 139.365,181.040 139.810,180.600 139.991 C 180.160 140.172,178.947 140.698,177.904 141.160 C 176.862 141.622,175.773 142.000,175.484 142.000 C 175.196 142.000,174.789 142.153,174.580 142.340 C 174.371 142.528,172.940 143.173,171.400 143.774 C 169.860 144.375,168.060 145.103,167.400 145.391 C 166.740 145.678,161.160 147.948,155.000 150.434 C 130.218 160.437,127.373 161.599,126.705 161.991 C 126.323 162.216,125.826 162.400,125.601 162.400 C 125.376 162.400,124.428 162.733,123.496 163.140 C 121.034 164.214,116.577 166.049,110.200 168.614 C 103.137 171.455,103.272 171.400,101.600 172.127 C 100.830 172.462,98.760 173.305,97.000 174.000 C 95.240 174.695,93.170 175.538,92.400 175.873 C 91.630 176.208,90.550 176.664,90.000 176.887 C 89.450 177.111,88.687 177.452,88.305 177.647 C 87.923 177.841,87.366 178.000,87.067 178.000 C 86.358 178.000,85.200 179.292,85.200 180.083 C 85.200 180.517,87.805 181.742,93.900 184.174 C 103.456 187.988,103.382 187.958,106.096 189.160 C 107.138 189.622,108.176 190.000,108.401 190.000 C 108.626 190.000,109.123 190.159,109.505 190.353 C 110.155 190.684,110.953 191.021,113.400 192.000 C 113.950 192.220,114.850 192.580,115.400 192.800 C 115.950 193.020,116.805 193.356,117.300 193.546 C 117.795 193.737,118.695 194.097,119.300 194.346 C 119.905 194.596,120.805 194.962,121.300 195.160 C 121.795 195.358,123.053 195.898,124.096 196.360 C 125.138 196.822,126.146 197.200,126.334 197.200 C 126.523 197.200,127.200 197.454,127.839 197.765 C 128.477 198.076,135.480 200.890,143.400 204.017 C 151.320 207.144,157.971 209.860,158.180 210.052 C 158.389 210.243,158.796 210.400,159.084 210.400 C 159.373 210.400,160.372 210.740,161.304 211.156 C 162.237 211.571,163.810 212.216,164.800 212.589 C 165.790 212.961,167.140 213.503,167.800 213.793 C 168.460 214.083,173.860 216.250,179.800 218.610 C 185.740 220.969,191.140 223.132,191.800 223.417 C 192.460 223.701,193.810 224.236,194.800 224.604 C 197.147 225.478,197.822 225.753,200.096 226.760 C 202.126 227.660,203.590 227.814,204.705 227.247 C 205.087 227.052,205.850 226.710,206.400 226.487 C 206.950 226.263,208.253 225.702,209.296 225.240 C 210.338 224.778,211.285 224.400,211.400 224.400 C 211.515 224.400,212.372 224.060,213.304 223.643 C 214.237 223.227,216.620 222.246,218.600 221.462 C 220.580 220.678,224.630 219.030,227.600 217.799 C 230.570 216.569,235.250 214.655,238.000 213.548 C 240.750 212.440,243.630 211.260,244.400 210.926 C 245.170 210.592,246.160 210.175,246.600 210.000 C 247.040 209.825,248.030 209.408,248.800 209.074 C 249.570 208.739,252.090 207.716,254.400 206.800 C 256.710 205.884,259.140 204.904,259.800 204.623 C 262.404 203.515,263.563 203.037,267.800 201.331 C 270.220 200.356,272.740 199.312,273.400 199.012 C 274.060 198.711,276.490 197.715,278.800 196.797 C 281.110 195.880,283.950 194.695,285.112 194.165 C 286.273 193.634,287.401 193.200,287.617 193.200 C 287.834 193.200,288.323 193.016,288.705 192.792 C 289.703 192.206,297.311 189.178,297.446 189.313 C 298.108 189.974,297.593 207.759,296.890 208.529 C 295.206 210.375,294.978 212.042,296.104 214.283 L 297.119 216.304 296.239 217.852 C 295.755 218.703,294.432 220.774,293.299 222.453 C 288.974 228.862,289.343 229.204,300.562 229.187 C 309.562 229.174,310.400 229.007,310.400 227.228 C 310.400 226.488,308.423 223.068,307.609 222.400 C 307.475 222.290,306.495 220.944,305.432 219.409 L 303.500 216.618 304.550 214.750 C 306.054 212.074,305.790 210.182,303.641 208.237 C 302.828 207.501,302.800 207.135,302.800 197.167 L 302.800 186.857 304.900 186.052 C 320.129 180.207,321.679 178.974,316.400 176.900 C 315.850 176.684,314.905 176.303,314.300 176.054 C 313.695 175.804,312.795 175.438,312.300 175.241 C 311.805 175.043,310.770 174.608,310.000 174.274 C 309.230 173.940,306.350 172.764,303.600 171.662 C 300.850 170.560,296.170 168.645,293.200 167.407 C 290.230 166.169,287.080 164.876,286.200 164.534 C 285.320 164.192,283.837 163.571,282.904 163.156 C 281.972 162.740,280.973 162.400,280.684 162.400 C 280.396 162.400,279.989 162.248,279.780 162.061 C 279.571 161.875,277.870 161.127,276.000 160.400 C 274.130 159.673,272.429 158.925,272.220 158.739 C 272.011 158.552,271.604 158.400,271.316 158.400 C 271.027 158.400,269.938 158.022,268.896 157.560 C 267.853 157.098,266.640 156.577,266.200 156.401 C 265.760 156.225,264.770 155.810,264.000 155.479 C 263.230 155.147,257.380 152.771,251.000 150.198 C 244.620 147.625,238.770 145.250,238.000 144.919 C 236.554 144.299,235.454 143.852,233.900 143.254 C 232.776 142.821,231.407 142.256,229.600 141.480 C 228.830 141.150,225.680 139.852,222.600 138.597 C 219.520 137.341,214.390 135.225,211.200 133.893 C 203.129 130.524,203.598 130.500,193.200 134.791 M209.694 134.033 C 215.765 136.453,216.374 136.702,220.200 138.337 C 221.300 138.808,226.250 140.832,231.200 142.837 C 236.150 144.841,242.540 147.438,245.400 148.607 C 255.783 152.853,268.490 158.028,282.200 163.595 C 289.900 166.722,296.955 169.622,297.878 170.040 C 298.801 170.458,299.666 170.800,299.800 170.800 C 299.934 170.800,300.799 171.141,301.722 171.558 C 302.645 171.975,306.640 173.614,310.600 175.201 C 319.848 178.906,320.190 179.217,316.513 180.602 C 315.461 180.998,313.520 181.804,312.200 182.393 C 310.880 182.982,308.270 184.063,306.400 184.796 C 304.530 185.529,302.774 186.303,302.498 186.515 C 302.106 186.816,302.053 189.192,302.257 197.351 L 302.519 207.800 303.659 209.114 C 305.151 210.832,305.188 212.844,303.766 214.936 L 302.732 216.458 303.831 218.129 C 304.436 219.048,305.865 221.068,307.007 222.617 C 311.380 228.551,311.537 228.400,300.984 228.400 C 289.761 228.400,289.911 228.575,294.798 221.179 C 297.643 216.872,297.941 216.249,297.498 215.521 C 296.221 213.421,296.011 212.939,296.006 212.080 C 295.999 210.996,296.888 209.157,297.774 208.422 C 298.497 207.822,298.736 189.055,298.026 188.616 C 297.689 188.408,291.878 190.555,287.800 192.394 C 286.920 192.791,283.410 194.235,280.000 195.603 C 276.590 196.972,273.260 198.336,272.600 198.636 C 271.506 199.132,261.605 203.185,240.800 211.652 C 236.510 213.398,232.460 215.072,231.800 215.373 C 230.702 215.873,220.315 220.118,212.000 223.465 C 210.130 224.218,208.060 225.079,207.400 225.379 C 206.740 225.679,205.494 226.215,204.632 226.570 L 203.063 227.216 191.832 222.756 C 185.654 220.303,179.845 217.959,178.922 217.548 C 177.999 217.137,177.126 216.800,176.982 216.800 C 176.724 216.800,176.022 216.507,172.304 214.847 C 171.262 214.381,170.224 214.000,169.999 214.000 C 169.774 214.000,169.187 213.792,168.695 213.538 C 166.901 212.610,166.403 212.400,166.001 212.400 C 165.776 212.400,164.828 212.053,163.896 211.628 C 162.963 211.204,157.880 209.135,152.600 207.031 C 127.517 197.034,86.289 180.422,86.106 180.239 C 85.462 179.595,86.924 178.736,92.253 176.629 C 95.524 175.335,98.920 173.968,99.800 173.590 C 104.425 171.605,107.485 170.354,121.800 164.596 C 130.380 161.144,138.030 158.050,138.800 157.719 C 139.570 157.389,140.560 156.975,141.000 156.800 C 141.440 156.625,142.430 156.208,143.200 155.874 C 143.970 155.540,148.200 153.824,152.600 152.060 C 157.000 150.297,163.930 147.476,168.000 145.793 C 172.070 144.110,176.300 142.382,177.400 141.954 C 180.068 140.915,179.872 140.994,192.000 136.025 C 204.656 130.839,202.334 131.100,209.694 134.033 M263.400 206.617 C 262.080 207.158,260.640 207.756,260.200 207.947 C 259.760 208.137,258.950 208.479,258.400 208.707 C 257.850 208.934,256.547 209.498,255.504 209.960 C 254.462 210.422,253.515 210.800,253.400 210.800 C 253.285 210.800,252.338 211.178,251.296 211.640 C 250.253 212.102,249.040 212.637,248.600 212.830 C 248.160 213.022,243.845 214.821,239.010 216.827 C 231.096 220.110,223.323 223.366,220.900 224.412 C 220.405 224.625,219.595 224.962,219.100 225.160 C 218.605 225.358,217.347 225.898,216.304 226.360 C 215.262 226.822,214.322 227.200,214.216 227.200 C 214.110 227.200,213.073 227.634,211.912 228.165 C 204.013 231.775,202.635 232.026,199.175 230.483 C 198.199 230.048,196.320 229.283,195.000 228.784 C 193.680 228.284,192.429 227.723,192.220 227.538 C 192.011 227.352,191.604 227.200,191.316 227.200 C 191.027 227.200,189.938 226.822,188.896 226.360 C 187.853 225.898,186.595 225.358,186.100 225.160 C 185.605 224.962,184.750 224.620,184.200 224.400 C 183.650 224.180,182.795 223.837,182.300 223.637 C 181.805 223.438,180.590 222.973,179.600 222.604 C 178.610 222.236,177.170 221.664,176.400 221.334 C 173.333 220.018,172.262 219.587,163.200 216.021 C 158.030 213.986,153.260 212.084,152.600 211.794 C 151.940 211.503,150.590 210.961,149.600 210.589 C 148.610 210.216,147.037 209.571,146.104 209.156 C 145.172 208.740,144.261 208.400,144.079 208.400 C 143.898 208.400,143.041 208.065,142.175 207.655 C 139.809 206.535,138.624 206.348,137.786 206.961 C 136.581 207.842,137.534 248.718,138.778 249.549 C 139.230 249.851,139.600 250.328,139.600 250.609 C 139.600 251.138,144.345 254.779,149.653 258.323 C 157.628 263.647,165.536 267.183,174.343 269.362 C 178.121 270.297,179.932 270.634,186.800 271.679 C 191.499 272.393,215.030 272.392,219.400 271.676 C 221.160 271.388,223.770 270.967,225.200 270.739 C 238.600 268.611,251.430 262.914,260.646 255.000 C 260.902 254.780,262.478 253.450,264.147 252.044 C 267.930 248.858,267.527 251.651,267.674 227.562 C 267.823 203.136,268.137 204.676,263.400 206.617 M267.000 227.468 L 267.000 248.336 266.000 249.414 C 259.826 256.073,247.707 263.719,238.577 266.718 C 232.926 268.574,229.896 269.330,224.800 270.155 C 191.362 275.570,157.977 267.932,141.037 250.993 L 138.523 248.478 138.171 231.539 C 137.655 206.701,137.642 207.422,138.600 207.291 C 139.040 207.230,145.700 209.714,153.400 212.809 C 161.100 215.905,168.210 218.718,169.200 219.062 C 170.190 219.406,171.180 219.825,171.400 219.995 C 171.620 220.164,172.250 220.434,172.800 220.596 C 173.350 220.757,174.430 221.157,175.200 221.485 C 176.666 222.110,177.793 222.566,179.300 223.146 C 179.795 223.337,180.650 223.679,181.200 223.907 C 181.750 224.135,183.280 224.729,184.600 225.226 C 185.920 225.724,187.180 226.259,187.400 226.416 C 187.620 226.574,188.250 226.834,188.800 226.996 C 189.350 227.157,190.340 227.530,191.000 227.824 C 193.855 229.098,202.457 232.400,202.922 232.400 C 203.201 232.400,204.953 231.759,206.815 230.975 C 208.677 230.191,211.550 229.005,213.200 228.339 C 214.850 227.674,216.935 226.794,217.832 226.385 C 218.730 225.976,220.440 225.258,221.632 224.790 C 223.727 223.966,224.612 223.594,227.600 222.279 C 228.370 221.940,229.990 221.274,231.200 220.800 C 232.410 220.326,233.985 219.682,234.700 219.369 C 237.152 218.296,242.201 216.176,250.400 212.778 C 253.150 211.639,256.300 210.308,257.400 209.822 C 258.500 209.336,260.480 208.520,261.800 208.007 C 263.120 207.495,264.379 206.916,264.597 206.720 C 264.816 206.525,265.446 206.418,265.997 206.483 L 267.000 206.600 267.000 227.468 " stroke="none" fill="#747476" fill-rule="evenodd"></path></g></svg>